# Blender v3.0.0 OBJ File: ''
# www.blender.org
mtllib occlusion.mtl
o Tooth37
v -27.039511 0.975062 -13.533143
v -26.874125 1.245570 -12.563386
v -26.110928 0.544737 -11.928866
v -26.254562 0.983887 -10.130887
v -16.708843 -1.328956 4.463778
v 8.022696 0.387429 19.857403
v -17.348974 0.084767 6.426007
v -17.695721 0.254794 5.838700
v -26.883394 1.556133 -11.799322
v -27.051859 1.383702 -12.695478
v -27.440226 1.434348 -13.386365
v -28.094351 1.969900 -14.266185
v 8.041804 0.395413 19.832613
v -27.543390 1.488407 -13.386281
v 8.012133 0.389097 19.846375
v -28.101595 1.970958 -14.266347
v -28.102654 1.969159 -14.243607
v -27.467152 1.432879 -13.320341
v -28.103628 1.974638 -14.280256
v -28.013874 1.880747 -14.219973
v -28.094774 1.967444 -14.291011
v -27.484106 1.443791 -13.328918
v -28.099730 1.964478 -14.228551
v 8.180300 0.425215 19.768057
v 8.381930 0.466249 19.683727
v 8.403938 0.463840 19.702772
v -26.430052 1.198845 -10.117875
v -26.380610 1.165877 -9.976886
v -26.357681 1.161758 -9.984223
v -27.407124 1.342067 -13.461537
v -16.697021 -1.327777 4.431398
v -16.688227 -1.324363 4.446050
v -27.151852 1.080082 -13.545008
v -26.232065 0.953946 -10.251275
v -26.210474 0.954842 -10.169789
v -26.366497 1.100893 -10.227977
v -16.678209 -1.319105 4.464125
v -27.041901 0.973252 -13.552529
v -26.231073 0.986821 -10.133301
v 7.967674 0.389469 19.856941
v -16.747412 -1.321611 4.373501
v 8.056886 0.375388 19.849363
v 8.160173 0.389509 19.809500
v 8.388178 0.432290 19.717922
v 7.889400 0.373874 19.892151
v 8.016886 0.374188 19.860439
v -16.760147 -1.317215 4.361742
v -17.348940 0.083908 6.428524
v -17.057316 -1.200391 4.217802
v -17.349951 0.084772 6.427872
v -27.018972 0.960887 -13.535505
v 8.025949 0.374633 19.857752
v -25.945276 0.518755 -11.594663
v -26.090237 0.683703 -11.348479
v -17.090176 -1.184600 4.228197
v -26.823320 1.494795 -11.481977
v -26.243521 0.853358 -11.372902
v -17.351257 0.085835 6.426081
v -16.672306 -1.284445 4.506735
v -26.944706 0.970992 -13.386314
v -17.531151 0.174038 6.122039
v -17.750242 0.279084 5.935980
v -26.838068 1.189074 -12.648793
v -26.831772 1.099037 -12.869794
v -17.352127 0.086313 6.420666
v -17.527796 0.172452 6.123124
v -17.347334 0.082206 6.423507
v -26.914015 1.543337 -11.680800
v -17.228058 -0.873938 4.516040
v -27.115677 1.387972 -12.716315
v -27.126637 1.401987 -12.705499
v -27.008533 1.616987 -11.807078
v -17.523762 0.165096 6.113796
v -17.485193 0.039602 5.858837
v -27.006765 1.466073 -12.329492
v -25.990721 0.470003 -11.897998
v -17.220949 -0.839579 4.551538
v -26.048098 0.470990 -12.095632
v -16.783031 -1.146300 4.576207
v -26.404736 0.671512 -12.878791
v -17.788666 0.248011 5.788249
v -26.259096 0.550844 -12.693221
v -17.758909 0.269820 5.892539
v -16.677822 -1.265078 4.519326
v -26.062872 0.466040 -12.173966
v -17.115843 -0.388566 5.422963
v -17.118004 -0.385757 5.428338
v -17.330551 -0.134958 5.720163
v -17.247940 -0.222767 5.696720
v -17.228596 -0.245234 5.673494
v -27.141766 1.425808 -12.685718
v -17.488049 -0.350973 5.085912
v -17.658302 -0.151263 5.294678
v -17.752169 0.216947 5.764786
v -17.672766 0.111077 5.649912
v -17.415342 -0.395280 5.053123
v -27.111300 1.439969 -12.603886
v -27.052038 1.440765 -12.497088
v -17.762829 0.229758 5.776434
v -17.116358 -0.389016 5.421570
vn 0.6543 -0.6851 0.3201
vn -0.4323 0.2416 0.8688
vn -0.8095 0.5265 0.2597
vn -0.7787 0.6093 0.1495
vn -0.7055 0.5786 -0.4093
vn -0.0323 0.0641 -0.9974
vn -0.0082 -0.3516 -0.9361
vn -0.5979 -0.7697 0.2237
vn -0.4624 0.2993 0.8346
vn -0.7921 0.6018 -0.1019
vn -0.4394 -0.1098 -0.8915
vn -0.2264 -0.1408 -0.9638
vn 0.5583 -0.6663 -0.4943
vn -0.6124 -0.7585 0.2228
vn -0.6806 -0.6935 0.2364
vn 0.7518 -0.6419 -0.1506
vn 0.8013 -0.5947 0.0658
vn -0.3214 0.7928 0.5178
vn -0.7582 0.0077 -0.6520
vn -0.1575 0.9570 -0.2436
vn -0.6490 -0.7410 0.1723
vn 0.1114 -0.3505 -0.9299
vn 0.4278 -0.6433 -0.6349
vn 0.6415 -0.7087 -0.2938
vn -0.9255 0.1049 0.3639
vn -0.7216 0.6179 0.3122
vn -0.8514 0.4705 -0.2316
vn 0.8604 -0.4737 -0.1880
vn 0.7235 -0.6853 -0.0830
vn -0.9845 0.1751 0.0055
vn 0.2359 -0.1351 0.9623
vn -0.0028 0.1475 0.9891
vn -0.2104 0.3747 0.9030
vn -0.5897 0.6347 0.4994
vn -0.7281 0.6530 0.2082
vn 0.7581 -0.5761 0.3056
vn -0.4421 0.2883 -0.8494
vn 0.2819 -0.4531 -0.8457
vn -0.3462 -0.7947 0.4986
vn 0.8033 -0.5889 0.0892
vn 0.8390 0.0069 0.5442
vn -0.4597 0.2453 0.8535
vn -0.6555 0.6424 -0.3971
vn 0.6378 0.3446 0.6888
vn -0.1228 -0.9025 0.4129
vn 0.6876 -0.5000 -0.5265
vn 0.8388 -0.3837 -0.3863
vn 0.9243 -0.3779 -0.0531
vn 0.4360 -0.6115 -0.6603
vn -0.7713 -0.1716 -0.6129
vn 0.0237 -0.3481 -0.9372
vn 0.3027 -0.4772 -0.8250
vn 0.8746 -0.1731 0.4529
vn -0.9593 0.1926 -0.2068
vn -0.4027 0.7687 0.4970
vn 0.3887 0.4382 0.8105
vn 0.7853 0.1650 0.5967
vn -0.6531 -0.1739 -0.7370
vn 0.6398 -0.3219 0.6979
vn 0.4721 -0.1496 0.8687
vn -0.8799 0.1049 -0.4635
vn 0.7423 -0.3817 0.5507
vn 0.7036 -0.5849 -0.4035
vn 0.9188 -0.3927 0.0389
vn -0.0102 -0.3242 0.9459
vn -0.9434 -0.2737 -0.1874
vn 0.1591 -0.4774 -0.8642
vn 0.8504 0.4957 0.1766
vn 0.7371 -0.5271 0.4229
vn -0.3652 0.3538 0.8611
vn -0.6649 0.5126 0.5433
vn -0.9454 0.2989 0.1301
vn -0.8011 -0.3856 -0.4578
vn -0.6984 0.1655 -0.6963
vn 0.4575 0.0246 0.8889
vn 0.1872 -0.2481 0.9505
vn -0.5100 0.2823 0.8126
vn -0.7590 0.5184 0.3940
vn -0.4872 0.3373 -0.8055
vn 0.6127 -0.6605 -0.4340
vn -0.8686 0.1592 -0.4692
vn -0.4548 0.4485 -0.7695
vn -0.2658 0.6489 -0.7130
vn 0.1404 0.6557 0.7418
vn 0.9124 0.4091 -0.0113
vn 0.0714 0.4468 -0.8918
vn -0.4299 0.4411 -0.7878
vn -0.3945 0.5694 -0.7212
vn 0.5757 -0.7614 0.2981
vn 0.2664 -0.8541 0.4468
vn 0.2971 -0.8507 0.4336
vn -0.9491 -0.0938 0.3007
vn 0.1505 -0.8936 0.4229
vn 0.1275 -0.8995 0.4178
vn 0.6852 0.7256 0.0637
vn 0.3832 0.8798 -0.2814
vn 0.5737 0.8165 -0.0647
vn 0.5195 0.8051 -0.2863
vn 0.4465 0.8303 -0.3334
vn 0.5175 0.8528 0.0698
usemtl material_0.012
s 1
f 20//1 23//2 17//3 16//4 19//5 21//6
f 38//7 1//8 22//9 14//10 30//11 33//12
f 51//13 1//8 38//7
f 63//14 2//15 1//8 51//13 60//16 64//17
f 18//18 22//9 1//8 2//15 71//19 70//20
f 3//21 2//15 63//14 80//22 82//23
f 85//24 3//21 82//23
f 71//19 2//15 98//25 97//26 91//27
f 3//21 85//24 78//28 76//29
f 75//30 98//25 2//15
f 2//15 3//21 54//31 57//32
f 2//15 57//32 56//33 68//34 72//35 75//30
f 54//31 3//21 76//29 53//36
f 36//37 34//38 4//39
f 4//39 34//38 35//40
f 39//41 4//39 35//40
f 4//39 28//42 27//43 36//37
f 29//44 28//42 4//39 39//41
usemtl material_0.014
f 5//45 31//46 32//47
f 5//45 32//47 37//48
f 31//46 5//45 41//49
f 41//49 5//45 55//50 49//51 47//52
f 5//45 37//48 59//53
f 69//54 55//50 5//45
f 77//55 69//54 5//45 79//56
f 79//56 5//45 59//53 84//57
f 92//58 90//59 89//60 93//61
f 87//62 100//63 86//64
f 88//65 95//66 93//61 89//60
f 100//63 87//62 90//59 92//58 96//67
f 88//65 74//68 73//69 61//70 62//71 83//72 99//73 94//74 95//66
f 66//75 61//70 73//69
f 48//76 50//77 58//78 65//79 67//80
f 99//73 83//72 81//81
usemtl material_0.016
f 13//82 15//83 6//84
f 6//84 26//85 25//86 24//87 13//82
f 40//88 6//84 15//83
f 44//89 26//85 6//84 42//90 43//91
f 45//92 6//84 40//88
f 6//84 52//93 42//90
f 52//93 6//84 46//94
f 45//92 46//94 6//84
usemtl material_0.018
f 40//88 15//83 13//82 24//87 43//91 42//90 52//93 46//94 45//92
f 25//86 26//85 44//89
f 43//91 24//87 25//86 44//89
usemtl material_0.021
f 7//95 50//77 48//76
f 50//77 7//95 58//78
f 48//76 67//80 7//95
f 7//95 65//79 58//78
f 61//70 66//75 8//96 62//71
f 8//96 66//75 73//69 74//68
f 7//95 67//80 65//79
f 62//71 8//96 81//81 83//72
f 88//65 89//60 90//59 87//62 86//64 8//96 74//68
f 95//66 94//74 8//96 96//67 92//58 93//61
f 99//73 81//81 8//96 94//74
f 8//96 86//64 100//63 96//67
f 59//53 37//48 32//47 31//46 41//49 47//52 84//57
f 79//56 84//57 47//52 49//51 77//55
f 49//51 55//50 69//54 77//55
usemtl material_0.023
f 29//44 27//43 28//42
f 39//41 35//40 34//38 36//37 27//43 29//44
f 54//31 53//36 9//97 56//33 57//32
f 9//97 68//34 56//33
f 68//34 9//97 72//35
f 78//28 9//97 53//36 76//29
f 80//22 9//97 78//28 85//24 82//23
f 63//14 64//17 10//98 9//97 80//22
f 75//30 72//35 9//97 10//98 97//26 98//25
f 10//98 64//17 60//16 11//99
f 97//26 10//98 91//27
f 33//12 11//99 60//16 51//13 38//7
f 71//19 91//27 10//98 70//20
f 70//20 10//98 11//99 18//18
f 18//18 11//99 14//10 22//9
f 30//11 14//10 11//99
f 11//99 33//12 30//11
f 12//100 23//2 20//1
f 23//2 12//100 17//3
f 17//3 12//100 16//4
f 20//1 21//6 12//100
f 19//5 12//100 21//6
f 16//4 12//100 19//5
